<svg width="21" height="28" viewBox="0 0 21 28" fill="none" xmlns="http://www.w3.org/2000/svg">
<path d="M10.4998 27.8471C16.242 27.8471 20.896 24.3817 20.896 18.3172C20.896 15.7182 20.0297 11.3864 16.5642 7.92097C16.9974 10.52 14.3984 11.3864 14.3984 11.3864C15.6979 7.05461 12.2325 0.990133 7.03435 0.123779C7.65293 3.5892 7.9007 7.05461 3.56893 10.52C1.40305 12.2527 0.103516 15.2486 0.103516 18.3172C0.103516 24.3817 4.75757 27.8471 10.4998 27.8471ZM10.4998 26.1144C7.62867 26.1144 5.30164 24.3817 5.30164 21.3495C5.30164 20.0499 5.73482 17.884 7.46753 16.1513C7.25094 17.4509 8.76706 18.3172 8.76706 18.3172C8.11729 16.1513 9.63341 12.6859 12.2325 12.2527C11.9223 13.9854 11.7993 15.7182 13.9652 17.4509C15.0481 18.3172 15.6979 19.8143 15.6979 21.3495C15.6979 24.3817 13.3709 26.1144 10.4998 26.1144Z" fill="#1643C3"/>
</svg>
