<svg width="20" height="24" viewBox="0 0 20 24" fill="none" xmlns="http://www.w3.org/2000/svg">
<path d="M10.0009 0.881165C6.81616 0.881165 4.22518 3.47214 4.22518 6.65686V10.1223H3.07004C2.45732 10.1223 1.86969 10.3657 1.43643 10.7989C1.00317 11.2322 0.759766 11.8198 0.759766 12.4326V21.6737C0.759766 22.2864 1.00317 22.874 1.43643 23.3073C1.86969 23.7405 2.45732 23.9839 3.07004 23.9839H16.9317C17.5444 23.9839 18.1321 23.7405 18.5653 23.3073C18.9986 22.874 19.242 22.2864 19.242 21.6737V12.4326C19.242 11.8198 18.9986 11.2322 18.5653 10.7989C18.1321 10.3657 17.5444 10.1223 16.9317 10.1223H15.7766V6.65686C15.7766 3.47214 13.1856 0.881165 10.0009 0.881165ZM6.53546 6.65686C6.53546 4.74626 8.09028 3.19144 10.0009 3.19144C11.9115 3.19144 13.4663 4.74626 13.4663 6.65686V10.1223H6.53546V6.65686ZM11.156 19.0434V21.6737H8.84574V19.0434C8.44188 18.8121 8.1176 18.4639 7.91565 18.0446C7.7137 17.6253 7.64357 17.1547 7.71449 16.6947C7.78542 16.2348 7.99407 15.8071 8.31295 15.4682C8.63182 15.1292 9.04594 14.8948 9.5007 14.796C9.83848 14.7213 10.1887 14.7234 10.5256 14.8021C10.8625 14.8808 11.1774 15.0341 11.4471 15.2507C11.7168 15.4673 11.9345 15.7417 12.084 16.0537C12.2336 16.3656 12.3112 16.7072 12.3112 17.0531C12.3105 17.4571 12.2034 17.8538 12.0006 18.2032C11.7978 18.5526 11.5065 18.8424 11.156 19.0434Z" fill="#1643C3"/>
</svg>
