<svg width="233" height="580" viewBox="0 0 233 580" fill="none" xmlns="http://www.w3.org/2000/svg">
<g opacity="0.7">
<path d="M0.123047 68.318V70H1.87697V68.318H0.123047Z" fill="white"/>
<path d="M231.877 70V68.318H230.123V70H231.877Z" fill="white"/>
<path d="M231.877 64.954V61.59H230.123V64.954H231.877Z" fill="white"/>
<path d="M0.123047 61.59V64.954H1.87697V61.59H0.123047Z" fill="white"/>
<path d="M111.856 58.5707V60.5H113.61V58.5707H111.856Z" fill="white"/>
<path d="M231.877 58.226V54.862H230.123V58.226H231.877Z" fill="white"/>
<path d="M0.123047 54.862V58.226H1.87697V54.862H0.123047Z" fill="white"/>
<path d="M111.856 50.8537V54.7122H113.61V50.8537H111.856Z" fill="white"/>
<path d="M0.123047 48.1339V51.498H1.87697V48.1339H0.123047Z" fill="white"/>
<path d="M231.877 51.498V48.1339H230.123V51.498H231.877Z" fill="white"/>
<path d="M111.856 43.1367V46.9952H113.61V43.1367H111.856Z" fill="white"/>
<path d="M231.877 44.7699V41.4059H230.123V44.7699H231.877Z" fill="white"/>
<path d="M0.123047 41.4059V44.7699H1.87697V41.4059H0.123047Z" fill="white"/>
<path d="M111.856 35.4197V39.2782H113.61V35.4197H111.856Z" fill="white"/>
<path d="M231.877 38.0419V34.6779H230.123V38.0419H231.877Z" fill="white"/>
<path d="M0.123047 34.6779V38.0419H1.87697V34.6779H0.123047Z" fill="white"/>
<path d="M111.856 30.5089V31.5612H113.61V30.5089H114.472V28.7549H113.61V27.7799H111.856V28.7549H110.987V30.5089H111.856Z" fill="white"/>
<path d="M231.877 31.3139V28.7549H229.261V30.5089H230.123V31.3139H231.877Z" fill="white"/>
<path d="M0.123047 31.3139H1.87697V30.5089H2.74584V28.7549H0.123047V31.3139Z" fill="white"/>
<path d="M9.72915 28.7549H6.2375V30.5089H9.72915V28.7549Z" fill="white"/>
<path d="M16.7125 28.7549H13.2208V30.5089H16.7125V28.7549Z" fill="white"/>
<path d="M23.6958 28.7549H20.2041V30.5089H23.6958V28.7549Z" fill="white"/>
<path d="M30.6791 28.7549H27.1874V30.5089H30.6791V28.7549Z" fill="white"/>
<path d="M37.6624 28.7549H34.1708V30.5089H37.6624V28.7549Z" fill="white"/>
<path d="M44.6457 28.7549H41.1541V30.5089H44.6457V28.7549Z" fill="white"/>
<path d="M51.629 28.7549H48.1374V30.5089H51.629V28.7549Z" fill="white"/>
<path d="M58.6124 28.7549H55.1207V30.5089H58.6124V28.7549Z" fill="white"/>
<path d="M65.5957 28.7549H62.104V30.5089H65.5957V28.7549Z" fill="white"/>
<path d="M72.579 28.7549H69.0873V30.5089H72.579V28.7549Z" fill="white"/>
<path d="M79.5623 28.7549H76.0707V30.5089H79.5623V28.7549Z" fill="white"/>
<path d="M86.5456 28.7549H83.054V30.5089H86.5456V28.7549Z" fill="white"/>
<path d="M93.529 28.7549H90.0373V30.5089H93.529V28.7549Z" fill="white"/>
<path d="M100.512 28.7549H97.0206V30.5089H100.512V28.7549Z" fill="white"/>
<path d="M107.496 28.7549H104.004V30.5089H107.496V28.7549Z" fill="white"/>
<path d="M121.429 28.7549H117.951V30.5089H121.429V28.7549Z" fill="white"/>
<path d="M128.386 28.7549H124.908V30.5089H128.386V28.7549Z" fill="white"/>
<path d="M135.343 28.7549H131.864V30.5089H135.343V28.7549Z" fill="white"/>
<path d="M142.3 28.7549H138.821V30.5089H142.3V28.7549Z" fill="white"/>
<path d="M149.257 28.7549H145.778V30.5089H149.257V28.7549Z" fill="white"/>
<path d="M156.214 28.7549H152.735V30.5089H156.214V28.7549Z" fill="white"/>
<path d="M163.17 28.7549H159.692V30.5089H163.17V28.7549Z" fill="white"/>
<path d="M170.127 28.7549H166.649V30.5089H170.127V28.7549Z" fill="white"/>
<path d="M177.084 28.7549H173.606V30.5089H177.084V28.7549Z" fill="white"/>
<path d="M184.041 28.7549H180.563V30.5089H184.041V28.7549Z" fill="white"/>
<path d="M190.998 28.7549H187.52V30.5089H190.998V28.7549Z" fill="white"/>
<path d="M197.955 28.7549H194.476V30.5089H197.955V28.7549Z" fill="white"/>
<path d="M204.912 28.7549H201.433V30.5089H204.912V28.7549Z" fill="white"/>
<path d="M211.869 28.7549H208.39V30.5089H211.869V28.7549Z" fill="white"/>
<path d="M218.825 28.7549H215.347V30.5089H218.825V28.7549Z" fill="white"/>
<path d="M225.782 28.7549H222.304V30.5089H225.782V28.7549Z" fill="white"/>
<path d="M111.856 20.3719V24.0759H113.61V20.3719H111.856Z" fill="white"/>
<path d="M111.856 12.964V16.6679H113.61V12.964H111.856Z" fill="white"/>
<path d="M111.856 5.55598V9.25997H113.61V5.55598H111.856Z" fill="white"/>
<path d="M111.856 0V1.85199H113.61V0H111.856Z" fill="white"/>
<path d="M0.623047 362.707V364.659H2.37697V362.707H0.623047Z" fill="white"/>
<path d="M0.623047 368.562V372.465H2.37697V368.562H0.623047Z" fill="white"/>
<path d="M0.623047 376.368V380.271H2.37697V376.368H0.623047Z" fill="white"/>
<path d="M0.623047 384.175V387.003H3.37501V385.249H2.37697V384.175H0.623047Z" fill="white"/>
<path d="M7.12501 387.003H10.875V385.249H7.12501V387.003Z" fill="white"/>
<path d="M14.625 387.003H18.375V385.249H14.625V387.003Z" fill="white"/>
<path d="M22.125 387.003H25.875V385.249H22.125V387.003Z" fill="white"/>
<path d="M29.625 387.003H33.375V385.249H29.625V387.003Z" fill="white"/>
<path d="M37.125 387.003H40.875V385.249H37.125V387.003Z" fill="white"/>
<path d="M44.625 387.003H48.375V385.249H44.625V387.003Z" fill="white"/>
<path d="M52.125 387.003H53.123V388.275H54.877V385.249H52.125V387.003Z" fill="white"/>
<path d="M53.123 392.573V396.87H54.877V392.573H53.123Z" fill="white"/>
<path d="M53.123 401.168V403.317H54.877V401.168H53.123Z" fill="white"/>
<path d="M112.623 362.707V364.659H114.377V362.707H112.623Z" fill="white"/>
<path d="M232.377 364.659V362.707H230.623V364.659H232.377Z" fill="white"/>
<path d="M112.623 368.562V372.465H114.377V368.562H112.623Z" fill="white"/>
<path d="M232.377 372.465V368.562H230.623V372.465H232.377Z" fill="white"/>
<path d="M112.623 376.368V380.271H114.377V376.368H112.623Z" fill="white"/>
<path d="M232.377 380.271V376.368H230.623V380.271H232.377Z" fill="white"/>
<path d="M112.623 384.175V387.003H115.236V385.249H114.377V384.175H112.623Z" fill="white"/>
<path d="M232.377 384.175H230.623V385.249H229.766V387.003H232.377V384.175Z" fill="white"/>
<path d="M118.708 387.003H122.181V385.249H118.708V387.003Z" fill="white"/>
<path d="M125.653 387.003H129.125V385.249H125.653V387.003Z" fill="white"/>
<path d="M132.597 387.003H136.069V385.249H132.597V387.003Z" fill="white"/>
<path d="M139.542 387.003H143.014V385.249H139.542V387.003Z" fill="white"/>
<path d="M146.486 387.003H149.958V385.249H146.486V387.003Z" fill="white"/>
<path d="M153.431 387.003H156.903V385.249H153.431V387.003Z" fill="white"/>
<path d="M160.375 387.003H163.847V385.249H160.375V387.003Z" fill="white"/>
<path d="M167.319 387.003H170.792V385.249H167.319V387.003Z" fill="white"/>
<path d="M174.264 387.003H175.123V388.275H176.877V387.003H177.734V385.249H174.264V387.003Z" fill="white"/>
<path d="M181.203 387.003H184.672V385.249H181.203V387.003Z" fill="white"/>
<path d="M188.141 387.003H191.609V385.249H188.141V387.003Z" fill="white"/>
<path d="M195.078 387.003H198.547V385.249H195.078V387.003Z" fill="white"/>
<path d="M202.016 387.003H205.484V385.249H202.016V387.003Z" fill="white"/>
<path d="M208.953 387.003H212.422V385.249H208.953V387.003Z" fill="white"/>
<path d="M215.891 387.003H219.359V385.249H215.891V387.003Z" fill="white"/>
<path d="M222.828 387.003H226.297V385.249H222.828V387.003Z" fill="white"/>
<path d="M175.123 392.573V396.87H176.877V392.573H175.123Z" fill="white"/>
<path d="M175.123 401.168V403.317H176.877V401.168H175.123Z" fill="white"/>
<path d="M56.6231 531.981V533.561H58.377V531.981H56.6231Z" fill="white"/>
<path d="M176.377 533.561V531.981H174.623V533.561H176.377Z" fill="white"/>
<path d="M56.6231 539.879V536.72H58.377V539.879H56.6231Z" fill="white"/>
<path d="M176.377 539.879V536.72H174.623V539.879H176.377Z" fill="white"/>
<path d="M56.6231 546.197V543.038H58.377V546.197H56.6231Z" fill="white"/>
<path d="M176.377 546.197V543.038H174.623V546.197H176.377Z" fill="white"/>
<path d="M56.6231 552.516V549.357H58.377V552.516H56.6231Z" fill="white"/>
<path d="M176.377 552.516V549.357H174.623V552.516H176.377Z" fill="white"/>
<path d="M56.6231 558.132V555.675H58.377V556.378H59.3438V558.132H56.6231Z" fill="white"/>
<path d="M176.377 555.675H174.623V556.378H173.656V558.132H176.377V555.675Z" fill="white"/>
<path d="M66.7188 558.132H63.0313V556.378H66.7188V558.132Z" fill="white"/>
<path d="M70.4063 558.132H74.0938V556.378H70.4063V558.132Z" fill="white"/>
<path d="M81.4688 558.132H77.7813V556.378H81.4688V558.132Z" fill="white"/>
<path d="M85.1563 558.132H88.8438V556.378H85.1563V558.132Z" fill="white"/>
<path d="M96.2188 558.132H92.5313V556.378H96.2188V558.132Z" fill="white"/>
<path d="M99.9063 558.132H103.594V556.378H99.9063V558.132Z" fill="white"/>
<path d="M110.969 558.132H107.281V556.378H110.969V558.132Z" fill="white"/>
<path d="M116.377 558.132H118.344V556.378H114.656V558H114.623V559.792H116.377V558.132Z" fill="white"/>
<path d="M125.719 558.132H122.031V556.378H125.719V558.132Z" fill="white"/>
<path d="M129.406 558.132H133.094V556.378H129.406V558.132Z" fill="white"/>
<path d="M140.469 558.132H136.781V556.378H140.469V558.132Z" fill="white"/>
<path d="M144.156 558.132H147.844V556.378H144.156V558.132Z" fill="white"/>
<path d="M155.219 558.132H151.531V556.378H155.219V558.132Z" fill="white"/>
<path d="M158.906 558.132H162.594V556.378H158.906V558.132Z" fill="white"/>
<path d="M169.969 558.132H166.281V556.378H169.969V558.132Z" fill="white"/>
<path d="M114.623 563.375V566.958H116.377V563.375H114.623Z" fill="white"/>
<path d="M114.623 570.73V570.542H116.377V570.73H120.563L115.5 579.5L110.437 570.73H114.623Z" fill="white"/>
<path d="M141.425 128H139.5V126H141.425V128Z" fill="white"/>
<path d="M149.125 128H145.275V126H149.125V128Z" fill="white"/>
<path d="M156.825 128H152.975V126H156.825V128Z" fill="white"/>
<path d="M164.525 128H160.675V126H164.525V128Z" fill="white"/>
<path d="M172.225 128H168.375V126H172.225V128Z" fill="white"/>
<path d="M179.925 128H176.075V126H179.925V128Z" fill="white"/>
<path d="M187.625 128H183.775V126H187.625V128Z" fill="white"/>
<path d="M195.325 128H191.475V126H195.325V128Z" fill="white"/>
<path d="M203.025 128H199.175V126H203.025V128Z" fill="white"/>
<path d="M210.725 128H206.875V126H210.725V128Z" fill="white"/>
<path d="M216.5 128H214.575V126H216.5V128Z" fill="white"/>
<path d="M2.4004 228.618V226.785H0.400401L0.400401 228.618H2.4004Z" fill="white"/>
<path d="M2.4004 223.118L2.4004 219.451H0.400401L0.400401 223.118H2.4004Z" fill="white"/>
<path d="M2.4004 215.785L2.4004 212.118H0.400402L0.400401 215.785H2.4004Z" fill="white"/>
<path d="M2.4004 208.451V204.785H0.400402L0.400402 208.451H2.4004Z" fill="white"/>
<path d="M2.4004 201.118L2.4004 197.452H0.400402L0.400402 201.118H2.4004Z" fill="white"/>
<path d="M2.4004 193.785L2.4004 190.118H0.400403L0.400402 193.785H2.4004Z" fill="white"/>
<path d="M2.4004 186.451V184.618H0.400403L0.400403 186.451H2.4004Z" fill="white"/>
<path d="M115.994 226.785V228.618H113.994V226.785H115.994Z" fill="white"/>
<path d="M115.994 219.451V223.118H113.994V219.451H115.994Z" fill="white"/>
<path d="M115.994 212.118V215.785H113.994V212.118H115.994Z" fill="white"/>
<path d="M115.994 204.785V208.451H113.994V204.785H115.994Z" fill="white"/>
<path d="M115.994 197.452V201.118H113.994V197.452H115.994Z" fill="white"/>
<path d="M115.994 190.118V193.785H113.994V190.118H115.994Z" fill="white"/>
<path d="M115.994 184.618V186.451H113.994V184.618H115.994Z" fill="white"/>
<path d="M232 228.618V226.785H230V228.618H232Z" fill="white"/>
<path d="M232 223.118V219.451H230V223.118H232Z" fill="white"/>
<path d="M232 215.785V212.118H230V215.785H232Z" fill="white"/>
<path d="M232 208.451V204.785H230V208.451H232Z" fill="white"/>
<path d="M232 201.118V197.452H230V201.118H232Z" fill="white"/>
<path d="M232 193.785V190.118H230V193.785H232Z" fill="white"/>
<path d="M232 186.451V184.618H230V186.451H232Z" fill="white"/>
</g>
</svg>
